<?xml version="1.0" encoding="utf-8"?>
<!-- Generator: Adobe Illustrator 24.3.0, SVG Export Plug-In . SVG Version: 6.00 Build 0)  -->
<svg version="1.1" id="レイヤー_2_1_" xmlns="http://www.w3.org/2000/svg" xmlns:xlink="http://www.w3.org/1999/xlink" x="0px"
	 y="0px" viewBox="0 0 40 40" style="enable-background: new 0 0 40 40;" xml:space="preserve">
<g>
	<path d="M36.4,33.9l-2.5,2.5c-0.8,0.8-2,0.8-2.8,0L3.6,8.9c-0.8-0.8-0.8-2,0-2.8l2.5-2.5c0.8-0.8,2-0.8,2.8,0l27.5,27.5
		C37.2,31.9,37.2,33.1,36.4,33.9z"/>
	<path d="M6.1,36.4l-2.5-2.5c-0.8-0.8-0.8-2,0-2.8L31.1,3.6c0.8-0.8,2-0.8,2.8,0l2.5,2.5c0.8,0.8,0.8,2,0,2.8L8.9,36.4
		C8.1,37.2,6.9,37.2,6.1,36.4z"/>
</g>
</svg>
