<?xml version="1.0" encoding="utf-8"?>
<!-- Generator: Adobe Illustrator 24.3.0, SVG Export Plug-In . SVG Version: 6.00 Build 0)  -->
<svg version="1.1" id="PEN" xmlns="http://www.w3.org/2000/svg" xmlns:xlink="http://www.w3.org/1999/xlink" x="0px" y="0px"
	 viewBox="0 0 40 40" style="enable-background: new 0 0 40 40;" xml:space="preserve">
<g>
	<path d="M20.5,23.4L38,10.2V8.8C38,7.3,36.7,6,35.2,6H5C3.3,6,2,7.3,2,9v1.2l17.5,13.1l0,0C19.7,23.5,20.3,23.5,20.5,23.4z"/>
	<path d="M22.3,25.8c-0.6,0.5-1.4,0.7-2.3,0.7c-0.8,0-1.7-0.3-2.3-0.7L2,13v17c0,2.2,1.8,4,4,4h28c2.2,0,4-1.8,4-4V13L22.3,25.8z"/>
</g>
</svg>
