<?xml version="1.0" encoding="utf-8"?>
<!-- Generator: Adobe Illustrator 24.3.0, SVG Export Plug-In . SVG Version: 6.00 Build 0)  -->
<svg version="1.1" id="MEGAPHONE" xmlns="http://www.w3.org/2000/svg" xmlns:xlink="http://www.w3.org/1999/xlink" x="0px" y="0px"
	 viewBox="0 0 40 40" style="enable-background: new 0 0 40 40;" xml:space="preserve">
<g>
	<g>
		<path d="M30.9,11.4l3.7-2.1c0.5-0.3,1.2-0.1,1.5,0.4l0,0c0.3,0.5,0.1,1.2-0.4,1.5L32,13.3c-0.5,0.3-1.2,0.1-1.5-0.4l0,0
			C30.3,12.3,30.5,11.7,30.9,11.4z"/>
		<path d="M34.2,19.3l4.2,0.3c0.6,0,1.1,0.5,1,1.2l0,0c0,0.6-0.5,1.1-1.2,1L34,21.5c-0.6,0-1.1-0.5-1-1.2l0,0
			C33.1,19.8,33.7,19.3,34.2,19.3z"/>
		<path d="M24.9,5.6l1.8-3.8C26.9,1.2,27.5,1,28,1.2l0,0c0.5,0.2,0.7,0.8,0.5,1.4l-1.8,3.8c-0.2,0.5-0.8,0.7-1.4,0.5l0,0
			C24.9,6.7,24.5,6.1,24.9,5.6z"/>
	</g>
	<g>
		<path d="M15.2,9.2c-2.2,6-3.6,7.3-8.3,10.9c-0.3,0.1-0.5,0.3-0.8,0.4c-0.2,0.1-0.5,0.3-0.8,0.5c-0.8,0.5-1.7,1-1.7,1
			c-2.9,1.6-2.5,4.8-0.8,7.7c1.8,3.1,4.5,4.7,7.1,3.1c0,0,0.4-0.3,1.1-0.6c0.5,1.4,1.9,5.2,2.2,6.2c0.3,0.7,0.6,1.4,1.4,0.8
			c0.4-0.2,2.4-1.4,2.8-1.6s0.7-0.6,0.4-1.5c-0.2-0.6-1.7-4.6-2.3-6.3c3.9-1.7,6-1.9,11.5-0.8L15.2,9.2z"/>
		<path d="M16.5,5.5c-0.1,0.3-0.2,0.6-0.3,1l13.4,23.2c0.3,0.1,0.6,0.1,1,0.2c1.7,0.4,2.7-0.3,1.8-1.7L18.8,4.7
			C18.1,3.4,16.9,3.9,16.5,5.5z"/>
	</g>
</g>
</svg>
