<?xml version="1.0" encoding="utf-8"?>
<!-- Generator: Adobe Illustrator 24.3.0, SVG Export Plug-In . SVG Version: 6.00 Build 0)  -->
<svg version="1.1" xmlns="http://www.w3.org/2000/svg" xmlns:xlink="http://www.w3.org/1999/xlink" x="0px" y="0px"
	 viewBox="0 0 40 40" style="enable-background: new 0 0 40 40;" xml:space="preserve">
<g id="レイヤー_1" focusable="false">
	<path d="M25.5,34.8h-11c-0.3,0-0.5-0.2-0.5-0.5v-1c0-0.3,0.2-0.5,0.5-0.5h11c0.3,0,0.5,0.2,0.5,0.5v1C26,34.6,25.8,34.8,25.5,34.8z
		"/>
	<path d="M23.5,37.8h-7c-0.6,0-1-0.4-1-1v-0.5c0-0.3,0.2-0.5,0.5-0.5h8c0.3,0,0.5,0.2,0.5,0.5v0.5C24.5,37.4,24.1,37.8,23.5,37.8z"
		/>
	<path d="M19.3,2.2C12.4,2.5,6.7,8,6.1,14.9c-0.5,6,2.8,11.3,7.7,13.8c0.2,0.1,0.3,0.3,0.3,0.4v2c0,0.3,0.2,0.5,0.5,0.5h11
		c0.3,0,0.5-0.2,0.5-0.5v-2.1c0-0.2,0.1-0.4,0.3-0.4c4.6-2.3,7.7-7,7.7-12.5C34,8.2,27.4,1.8,19.3,2.2z M20.3,6.8
		c-5.2,0-9.5,4.3-9.5,9.5c0,0.6-0.5,1.2-1.2,1.2S8.5,17,8.5,16.3c0-6.5,5.3-11.8,11.8-11.8c0.6,0,1.2,0.5,1.2,1.2
		C21.5,6.3,21,6.8,20.3,6.8z"/>
</g>
<g id="レイヤー_2">
</g>
</svg>
