<?xml version="1.0" encoding="utf-8"?>
<!-- Generator: Adobe Illustrator 24.3.0, SVG Export Plug-In . SVG Version: 6.00 Build 0)  -->
<svg version="1.1" id="レイヤー_2_1_" xmlns="http://www.w3.org/2000/svg" xmlns:xlink="http://www.w3.org/1999/xlink" x="0px"
	 y="0px" viewBox="0 0 40 40" style="enable-background:new 0 0 40 40;" xml:space="preserve">
<path d="M36.1,7.1l-3.1-3.1c-0.2-0.2-0.5-0.2-0.7,0L20,16.2L7.8,3.9c-0.2-0.2-0.5-0.2-0.7,0L3.9,7.1c-0.2,0.2-0.2,0.5,0,0.7L16.2,20
	L3.9,32.2c-0.2,0.2-0.2,0.5,0,0.7l3.1,3.1c0.2,0.2,0.5,0.2,0.7,0L20,23.8l12.2,12.2c0.2,0.2,0.5,0.2,0.7,0l3.1-3.1
	c0.2-0.2,0.2-0.5,0-0.7L23.8,20L36.1,7.8C36.3,7.6,36.3,7.3,36.1,7.1z"/>
</svg>
