<?xml version="1.0" encoding="utf-8"?>
<!-- Generator: Adobe Illustrator 24.3.0, SVG Export Plug-In . SVG Version: 6.00 Build 0)  -->
<svg version="1.1" id="レイヤー_1" xmlns="http://www.w3.org/2000/svg" xmlns:xlink="http://www.w3.org/1999/xlink" x="0px"
	 y="0px" viewBox="0 0 40 40" style="enable-background:new 0 0 40 40;" xml:space="preserve">
<path d="M38.7,32.8l-17-29.6c-0.8-1.3-2.6-1.3-3.4,0l-17,29.6c-0.8,1.3,0.2,2.9,1.7,2.9h34.1C38.6,35.7,39.5,34.1,38.7,32.8z
	 M22.6,10.8l-0.6,13c0,0.1-0.1,0.2-0.2,0.2h-3.5c-0.1,0-0.2-0.1-0.2-0.2l-0.6-13c0-0.3,0.2-0.5,0.5-0.5h4.2
	C22.4,10.3,22.6,10.5,22.6,10.8z M20,32.8c-1.8,0-3.2-1.5-3.2-3.2s1.5-3.2,3.2-3.2s3.2,1.5,3.2,3.2S21.8,32.8,20,32.8z"/>
</svg>
