<?xml version="1.0" encoding="utf-8"?>
<!-- Generator: Adobe Illustrator 24.3.0, SVG Export Plug-In . SVG Version: 6.00 Build 0)  -->
<svg version="1.1" id="レイヤー_1" xmlns="http://www.w3.org/2000/svg" xmlns:xlink="http://www.w3.org/1999/xlink" x="0px"
	 y="0px" viewBox="0 0 40 40" style="enable-background:new 0 0 40 40;" xml:space="preserve">
<path d="M33.4,6.6C29.8,3,25,1,20,1c-5,0-9.8,2-13.4,5.6C3,10.2,1,15,1,20c0,5,2,9.8,5.6,13.4C10.2,37,15,39,20,39s9.8-2,13.4-5.6
	C37,29.8,39,25,39,20S37,10.2,33.4,6.6z M27.8,31.4c-2.3,1.6-5,2.4-7.9,2.4c-3.6,0-6.9-1.4-9.5-3.9c-2.6-2.6-4.1-6.2-4.1-9.9
	c0-2.7,0.8-5.3,2.4-7.7L27.8,31.4z M12.3,8.6c2.4-1.6,5-2.5,7.7-2.5c7.7,0.2,13.9,6.4,13.9,13.9c0,2.7-0.8,5.3-2.4,7.7L12.3,8.6z"/>
</svg>
