<?xml version="1.0" encoding="utf-8"?>
<!-- Generator: Adobe Illustrator 24.3.0, SVG Export Plug-In . SVG Version: 6.00 Build 0)  -->
<svg version="1.1" id="CART" xmlns="http://www.w3.org/2000/svg" xmlns:xlink="http://www.w3.org/1999/xlink" x="0px" y="0px"
	 viewBox="0 0 40 40" style="enable-background:new 0 0 40 40;" xml:space="preserve">
<g>
	<path d="M35.2,22.7l1.7-12.2c0.1-0.6-0.4-1.1-1-1.1H9.8L9,4.3c0-0.5-0.5-0.9-1-0.9H4.9h-3c-0.6,0-1,0.4-1,1v2c0,0.6,0.4,1,1,1h2.7
		c0.5,0,0.9,0.4,1,0.9l3.2,22.4c0.1,0.5,0.5,0.9,1,0.9H13h21.1c0.6,0,1-0.4,1-1v-2c0-0.6-0.4-1-1-1H13.3c-0.5,0-0.9-0.4-1-0.9
		l-0.2-1.3l22.2-1.8C34.8,23.5,35.1,23.2,35.2,22.7z"/>
	<circle cx="12" cy="35.6" r="3"/>
	<circle cx="30.1" cy="35.6" r="3"/>
</g>
</svg>
