<?xml version="1.0" encoding="utf-8"?>
<!-- Generator: Adobe Illustrator 24.3.0, SVG Export Plug-In . SVG Version: 6.00 Build 0)  -->
<svg version="1.1" id="レイヤー_2_1_" xmlns="http://www.w3.org/2000/svg" xmlns:xlink="http://www.w3.org/1999/xlink" x="0px"
	 y="0px" viewBox="0 0 40 40" style="enable-background:new 0 0 40 40;" xml:space="preserve">
<path d="M20,13.5c3.6,0,6.5,2.9,6.5,6.5c0,3.6-2.9,6.5-6.5,6.5s-6.5-2.9-6.5-6.5S16.4,13.5,20,13.5z M33.7,18.2l3.9-3
	c0.3-0.3,0.4-0.8,0.2-1.2l-3.7-6.4c-0.3-0.5-0.8-0.6-1.2-0.4L28.3,9c-1-0.7-2-1.4-3.1-1.8l-0.7-4.9c-0.1-0.4-0.4-0.8-0.9-0.8h-7.5
	c-0.4,0-0.8,0.3-0.9,0.8l-0.7,4.9c-1.1,0.4-2.2,1-3.1,1.8L7,7.2C6.6,7,6.1,7.1,5.9,7.5l-3.7,6.4c-0.3,0.4-0.2,1,0.2,1.2l3.9,3
	c-0.1,0.6-0.1,1.2-0.1,1.8s0,1.2,0.1,1.8l-3.9,3C2.1,25,2,25.5,2.2,25.9l3.7,6.4C6.1,32.9,6.6,33,7,32.8l4.6-1.8
	c1,0.7,2,1.4,3.1,1.8l0.7,4.9c0.1,0.4,0.4,0.8,0.9,0.8h7.5c0.4,0,0.8-0.3,0.9-0.8l0.7-4.9c1.1-0.4,2.2-1,3.1-1.8l4.6,1.8
	c0.4,0.2,0.9,0.1,1.1-0.3l3.7-6.4c0.3-0.4,0.2-1-0.2-1.2l-3.9-3c0.1-0.6,0.1-1.2,0.1-1.8C33.8,19.5,33.8,18.8,33.7,18.2z"/>
</svg>
