<?xml version="1.0" encoding="utf-8"?>
<!-- Generator: Adobe Illustrator 24.3.0, SVG Export Plug-In . SVG Version: 6.00 Build 0)  -->
<svg version="1.1" id="レイヤー_2_1_" xmlns="http://www.w3.org/2000/svg" xmlns:xlink="http://www.w3.org/1999/xlink" x="0px"
	 y="0px" viewBox="0 0 40 40" style="enable-background:new 0 0 40 40;" xml:space="preserve">
<g>
	<path d="M31.2,12.1c0,1.9-1.5,3.4-3.4,3.4s-3.4-1.5-3.4-3.4s1.5-3.4,3.4-3.4S31.2,10.3,31.2,12.1z"/>
	<path d="M33,31.2H7c-0.3,0-0.5-0.2-0.5-0.5V27c0-0.2,0-0.4,0.1-0.5L14,13.9c0.2-0.3,0.6-0.3,0.8-0.1l8.4,10.5
		c0.1,0.1,0.2,0.2,0.4,0.2h1.8c0.1,0,0.2,0,0.3-0.1l6.9-5.9c0.3-0.3,0.8,0,0.8,0.4v11.9C33.5,31,33.3,31.2,33,31.2z"/>
</g>
<path d="M36,36H4c-1.1,0-2-0.9-2-2V6c0-1.1,0.9-2,2-2h32c1.1,0,2,0.9,2,2v28C38,35.1,37.1,36,36,36z M5,34h30c0.6,0,1-0.4,1-1V7
	c0-0.6-0.4-1-1-1H5C4.4,6,4,6.4,4,7v26C4,33.6,4.4,34,5,34z"/>
</svg>
