<?xml version="1.0" encoding="utf-8"?>
<!-- Generator: Adobe Illustrator 24.3.0, SVG Export Plug-In . SVG Version: 6.00 Build 0)  -->
<svg version="1.1" id="レイヤー_2_1_" xmlns="http://www.w3.org/2000/svg" xmlns:xlink="http://www.w3.org/1999/xlink" x="0px"
	 y="0px" viewBox="0 0 40 40" style="enable-background:new 0 0 40 40;" xml:space="preserve">
<g>
	<path d="M35.6,4.4c-1.6-1.7-3.9-2.7-6.4-2.7c-2.4,0-4.7,0.9-6.4,2.7l-6.9,7c-1.7,1.7-2.6,4-2.6,6.4s0.9,4.7,2.6,6.4
		c0.4,0.4,0.9,0.6,1.5,0.6c0.6,0,1.2-0.3,1.5-0.7c0.4-0.4,0.6-0.9,0.6-1.5c0-0.6-0.2-1.1-0.6-1.5c-0.9-0.9-1.4-2-1.4-3.3
		c0-1.3,0.5-2.5,1.4-3.5l6.9-6.9C26.7,6.6,27.9,6,29.2,6c1.3,0,2.5,0.5,3.4,1.4c0.9,0.9,1.4,2,1.4,3.3c0,1.3-0.5,2.5-1.4,3.5
		l-3.2,3.2c-0.4,0.4-0.6,0.9-0.6,1.5c0,0.6,0.2,1.1,0.6,1.5c0.8,0.8,2.2,0.8,3,0l3.2-3.2c1.7-1.7,2.6-4,2.6-6.4
		C38.2,8.4,37.3,6.1,35.6,4.4z"/>
	<path d="M21.1,15.9c-0.4,0.4-0.6,0.9-0.6,1.5c0,0.6,0.2,1.1,0.6,1.5c0.9,0.9,1.4,2,1.4,3.3c0,1.3-0.5,2.5-1.4,3.5l-6.9,6.9
		c-0.9,0.9-2.1,1.4-3.4,1.4s-2.5-0.5-3.4-1.4c-0.9-0.9-1.4-2-1.4-3.3c0-1.3,0.5-2.5,1.4-3.5l3.2-3.2c0.4-0.4,0.6-0.9,0.6-1.5
		c0-0.6-0.2-1.1-0.6-1.5c-0.8-0.8-2.2-0.8-3,0l-3.2,3.2c-1.7,1.7-2.6,4-2.6,6.4s0.9,4.7,2.6,6.4c1.6,1.7,3.9,2.7,6.4,2.7
		c2.4,0,4.7-0.9,6.4-2.7l6.9-6.9c1.7-1.7,2.6-4,2.6-6.4c0-2.4-0.9-4.7-2.6-6.4C23.3,15.1,21.9,15.1,21.1,15.9z"/>
</g>
</svg>
