<?xml version="1.0" encoding="utf-8"?>
<!-- Generator: Adobe Illustrator 24.3.0, SVG Export Plug-In . SVG Version: 6.00 Build 0)  -->
<svg version="1.1" id="PEN" xmlns="http://www.w3.org/2000/svg" xmlns:xlink="http://www.w3.org/1999/xlink" x="0px" y="0px"
	 viewBox="0 0 40 40" style="enable-background:new 0 0 40 40;" xml:space="preserve">
<path d="M38,36.2L38,36.2c0,0.6-0.4,1-1,1H15c-0.6,0-1-0.4-1-1l0,0c0-0.6,0.4-1,1-1h22C37.6,35.2,38,35.6,38,36.2z M24.1,11.2
	L15.2,6l1.7-2.9c0.5-0.8,2.8-0.3,5.3,1.1s4.1,3.3,3.6,4.1L24.1,11.2L24.1,11.2z M23.1,12.8L12,32.1l-1,1.7l0,0
	c-0.1,0.2-0.2,0.3-0.4,0.4l-4.3,1.9l-2.3,1c-0.3,0.1-0.5,0.1-0.8,0.1C3.1,37.1,3,37,2.9,36.9c0-0.1-0.1-0.3-0.1-0.4l-0.1-0.7L2.5,34
	l-0.1-1.1L2,29.3c0-0.2,0-0.3,0.1-0.5l0,0v-0.1l1-1.7L14.2,7.8L23.1,12.8z M9.9,33l0.7-1c-0.6-0.7-1.4-1.4-2.5-2.1L7,29.3
	c-1.1-0.6-2.2-1-3-1.1l-0.6,1l0.2,2.7c0.7,0.3,1.3,0.6,2,1c0.6,0.3,1.2,0.8,1.8,1.2L9.9,33L9.9,33z"/>
</svg>
