<?xml version="1.0" encoding="utf-8"?>
<!-- Generator: Adobe Illustrator 24.3.0, SVG Export Plug-In . SVG Version: 6.00 Build 0)  -->
<svg version="1.1" id="レイヤー_1" xmlns="http://www.w3.org/2000/svg" xmlns:xlink="http://www.w3.org/1999/xlink" x="0px"
	 y="0px" viewBox="0 0 40 40" style="enable-background:new 0 0 40 40;" xml:space="preserve">
<path d="M36.4,22.4H22.4v14.1c0,0.3-0.2,0.6-0.6,0.6h-3.6c-0.3,0-0.6-0.2-0.6-0.6V22.4H3.6c-0.3,0-0.6-0.2-0.6-0.6v-3.6
	c0-0.3,0.2-0.6,0.6-0.6h14.1V3.6c0-0.3,0.2-0.6,0.6-0.6h3.6c0.3,0,0.6,0.2,0.6,0.6v14.1h14.1c0.3,0,0.6,0.2,0.6,0.6v3.6
	C37,22.2,36.8,22.4,36.4,22.4z"/>
</svg>
