<?xml version="1.0" encoding="utf-8"?>
<!-- Generator: Adobe Illustrator 24.3.0, SVG Export Plug-In . SVG Version: 6.00 Build 0)  -->
<svg version="1.1" id="PEN" xmlns="http://www.w3.org/2000/svg" xmlns:xlink="http://www.w3.org/1999/xlink" x="0px" y="0px"
	 viewBox="0 0 40 40" style="enable-background: new 0 0 40 40;" xml:space="preserve">
<g>
	<path d="M37.2,16.4v5c0,0.5-0.1,0.8-0.2,1.2L34,32c-0.5,1.1-1.6,2-2.9,2h-15c-2,0-3.5-1.6-3.5-3.5V14.9c0-0.9,0.4-1.7,0.9-2.2
		l8.9-9.9c0.4-0.4,0.9-0.4,1.2,0l1,1.1c0.5,0.5,0.7,0.9,0.7,1.7V6L24,12.3c-0.1,0.6,0.3,1,0.8,1h8.9C35.7,13.3,37.2,14.8,37.2,16.4z
		"/>
	<path d="M3.2,34.1V15.7c0-0.5,0.5-0.8,1-0.8h5.4c0.6,0,1,0.4,1,0.8V34c0,0.5-0.5,0.8-1,0.8H4.2C3.6,34.9,3.2,34.5,3.2,34.1z"/>
</g>
</svg>
