<?xml version="1.0" encoding="utf-8"?>
<!-- Generator: Adobe Illustrator 24.3.0, SVG Export Plug-In . SVG Version: 6.00 Build 0)  -->
<svg version="1.1" id="PEN" xmlns="http://www.w3.org/2000/svg" xmlns:xlink="http://www.w3.org/1999/xlink" x="0px" y="0px"
	 viewBox="0 0 40 40" style="enable-background:new 0 0 40 40;" xml:space="preserve">
<g>
	<path d="M33.9,25.8h-8.9c-0.6,0-0.9,0.5-0.8,1l1.3,6.3v0.6c0,0.7-0.2,1.2-0.7,1.7l-1.1,1.1c-0.4,0.4-0.9,0.4-1.2,0l-8.9-9.9
		c-0.6-0.6-0.9-1.3-0.9-2.2V8.6c0-2,1.6-3.5,3.5-3.5h14.9c1.3,0,2.4,0.8,2.9,2l3,9.3c0.2,0.4,0.2,0.7,0.2,1.2v5
		C37.1,24.3,35.7,25.8,33.9,25.8z"/>
	<path d="M3.2,26.1V7.8c0-0.5,0.5-0.8,1-0.8h5.4c0.6,0,1,0.4,1,0.8V26c0,0.5-0.5,0.8-1,0.8H4.2C3.7,27,3.2,26.6,3.2,26.1z"/>
</g>
</svg>
