<?xml version="1.0" encoding="utf-8"?>
<!-- Generator: Adobe Illustrator 24.3.0, SVG Export Plug-In . SVG Version: 6.00 Build 0)  -->
<svg version="1.1" id="レイヤー_1" xmlns="http://www.w3.org/2000/svg" xmlns:xlink="http://www.w3.org/1999/xlink" x="0px"
	 y="0px" viewBox="0 0 40 40" style="enable-background:new 0 0 40 40;" xml:space="preserve">
<path d="M20,1C9.5,1,1,9.5,1,20s8.5,19,19,19s19-8.5,19-19S30.5,1,20,1z M22.6,9L22,22c0,0.1-0.1,0.2-0.2,0.2h-3.5
	c-0.1,0-0.2-0.1-0.2-0.2L17.4,9c0-0.3,0.2-0.5,0.5-0.5h4.2C22.4,8.5,22.6,8.7,22.6,9z M20,31.5c-1.8,0-3.2-1.4-3.2-3.2
	c0-1.8,1.4-3.2,3.2-3.2s3.2,1.4,3.2,3.2S21.8,31.5,20,31.5z"/>
</svg>
