<?xml version="1.0" encoding="utf-8"?>
<!-- Generator: Adobe Illustrator 26.2.1, SVG Export Plug-In . SVG Version: 6.00 Build 0)  -->
<svg version="1.1" id="レイヤー_1" focusable="false"
	 xmlns="http://www.w3.org/2000/svg" xmlns:xlink="http://www.w3.org/1999/xlink" x="0px" y="0px" viewBox="0 0 56 56"
	 style="enable-background:new 0 0 56 56;" xml:space="preserve">
<rect x="9" y="30" width="38" height="2"/>
<rect x="9" y="24" width="38" height="2"/>
<path d="M19,16h18c0.6,0,1,0.4,1,1v2c0,0.6-0.4,1-1,1H19c-0.6,0-1-0.4-1-1v-2C18,16.4,18.4,16,19,16z"/>
<path d="M45,40h-6c-1.1,0-2-0.9-2-2l0,0c0-1.1,0.9-2,2-2h6c1.1,0,2,0.9,2,2l0,0C47,39.1,46.1,40,45,40z"/>
<g>
	<rect x="9" y="37" width="22" height="2"/>
</g>
<path d="M2,49V7c0-0.6,0.4-1,1-1h50c0.6,0,1,0.4,1,1v42c0,0.6-0.4,1-1,1H3C2.4,50,2,49.6,2,49z M4,8v40h48V8H4z"/>
</svg>
