<?xml version="1.0" encoding="utf-8"?>
<!-- Generator: Adobe Illustrator 24.3.0, SVG Export Plug-In . SVG Version: 6.00 Build 0)  -->
<svg version="1.1" id="レイヤー_2" xmlns="http://www.w3.org/2000/svg" xmlns:xlink="http://www.w3.org/1999/xlink" x="0px"
	 y="0px" viewBox="0 0 24 24" style="enable-background: new 0 0 24 24;" xml:space="preserve">
<rect x="17.5" y="10.7" width="2.5" height="2.5"/>
<rect x="4" y="10.7" width="2.5" height="2.5"/>
<rect x="10.7" y="4" width="2.5" height="2.5"/>
<rect x="4" y="4" width="2.5" height="2.5"/>
<rect x="10.7" y="17.5" width="2.5" height="2.5"/>
<rect x="17.5" y="17.5" width="2.5" height="2.5"/>
<rect x="-2.6" y="11.4" transform="matrix(0.7071 -0.7071 0.7071 0.7071 -4.9706 12)" width="29.2" height="1.2"/>
<g>
	<polygon points="18.1,4 17.5,4 17.5,4.6 	"/>
	<polygon points="19.4,6.5 20,6.5 20,5.9 	"/>
</g>
<g>
	<polygon points="11.3,10.7 10.7,10.7 10.7,11.3 	"/>
	<polygon points="12.7,13.3 13.3,13.3 13.3,12.7 	"/>
</g>
<g>
	<polygon points="4.6,17.5 4,17.5 4,18.1 	"/>
	<polygon points="5.9,20 6.5,20 6.5,19.4 	"/>
</g>
</svg>
